<?xml version="1.0" encoding="utf-8"?>
<!-- Generator: Adobe Illustrator 17.0.0, SVG Export Plug-In . SVG Version: 6.00 Build 0)  -->
<!DOCTYPE svg PUBLIC "-//W3C//DTD SVG 1.1//EN" "http://www.w3.org/Graphics/SVG/1.1/DTD/svg11.dtd">
<svg version="1.1" id="Capa_1" xmlns="http://www.w3.org/2000/svg" xmlns:xlink="http://www.w3.org/1999/xlink" x="0px" y="0px"
	 width="323.273px" height="235.786px" viewBox="0 0 323.273 235.786" enable-background="new 0 0 323.273 235.786"
	 xml:space="preserve">
<g>
	<defs>
		<rect id="SVGID_1_" x="500.929" y="-3976.961" width="1024" height="5200.09"/>
	</defs>
	<clipPath id="SVGID_2_">
		<use xlink:href="#SVGID_1_"  overflow="visible"/>
	</clipPath>
	<g clip-path="url(#SVGID_2_)">
		<defs>
			<rect id="SVGID_22_" x="500.929" y="-3976.96" width="1024" height="5200.089"/>
		</defs>
		<clipPath id="SVGID_4_">
			<use xlink:href="#SVGID_22_"  overflow="visible"/>
		</clipPath>
	</g>
	<g clip-path="url(#SVGID_2_)">
		<defs>
			<rect id="SVGID_48_" x="500.929" y="-3976.96" width="1024" height="5200.089"/>
		</defs>
		<clipPath id="SVGID_6_">
			<use xlink:href="#SVGID_48_"  overflow="visible"/>
		</clipPath>
		<g clip-path="url(#SVGID_6_)" enable-background="new    ">
			<g>
				<defs>
					<rect id="SVGID_50_" x="187.143" y="-3313.751" width="1320.926" height="4308.24"/>
				</defs>
				<clipPath id="SVGID_8_">
					<use xlink:href="#SVGID_50_"  overflow="visible"/>
				</clipPath>
			</g>
		</g>
	</g>
	<g clip-path="url(#SVGID_2_)">
		<defs>
			<rect id="SVGID_114_" x="500.929" y="-3976.96" width="1024" height="5200.089"/>
		</defs>
		<clipPath id="SVGID_10_">
			<use xlink:href="#SVGID_114_"  overflow="visible"/>
		</clipPath>
	</g>
	<g clip-path="url(#SVGID_2_)">
		<defs>
			<rect id="SVGID_142_" x="500.929" y="-3976.96" width="1024" height="5200.089"/>
		</defs>
		<clipPath id="SVGID_12_">
			<use xlink:href="#SVGID_142_"  overflow="visible"/>
		</clipPath>
		<g clip-path="url(#SVGID_12_)" enable-background="new    ">
			<g>
				<defs>
					<rect id="SVGID_144_" x="187.143" y="-2884.75" width="1320.926" height="4308.24"/>
				</defs>
				<clipPath id="SVGID_13_">
					<use xlink:href="#SVGID_144_"  overflow="visible"/>
				</clipPath>
			</g>
		</g>
	</g>
</g>
<g>
	<defs>
		<rect id="SVGID_272_" x="0" y="0" width="323.273" height="235.786"/>
	</defs>
	<clipPath id="SVGID_15_">
		<use xlink:href="#SVGID_272_"  overflow="visible"/>
	</clipPath>
	<rect x="187.332" y="162.215" clip-path="url(#SVGID_15_)" fill="#B3B3B3" width="24.145" height="9.287"/>
	<rect x="187.332" y="162.215" clip-path="url(#SVGID_15_)" fill="#999999" width="24.006" height="4.643"/>
	<path clip-path="url(#SVGID_15_)" fill="#B3B3B3" d="M118.929,87.04v-0.483v58.483h24V87.15c0-2.256,0.245-4.737-0.924-6.482
		l-7.357-11.715c-1.016-1.016-2.442-1.501-3.666-1.466c-1.529-0.035-2.669,0.45-3.685,1.466l-7.458,11.754
		c-1.019,1.519-0.881,3.617-0.99,5.99"/>
	<path clip-path="url(#SVGID_15_)" fill="#999999" d="M142.004,80.668l-7.357-11.438c-1.016-1.016-2.36-1.19-3.583-1.19h-0.136v77
		h12V87.15C142.928,84.876,143.174,82.413,142.004,80.668"/>
	<path clip-path="url(#SVGID_15_)" fill="#B3B3B3" d="M186.929,87.04v-0.483v58.483h25V87.15c0-2.256-0.266-4.737-1.436-6.482
		l-7.612-11.715c-1.016-1.016-2.57-1.501-3.794-1.466c-1.529-0.035-2.733,0.45-3.748,1.466l-7.491,11.754
		c-1.019,1.519-0.885,3.617-0.995,5.99"/>
	<path clip-path="url(#SVGID_15_)" fill="#999999" d="M210.493,80.668l-7.612-11.438c-1.016-1.016-2.616-1.19-3.84-1.19h-1.112v77
		h14V87.15C211.929,84.876,211.663,82.413,210.493,80.668"/>
	<path clip-path="url(#SVGID_15_)" fill="#E6E6E6" d="M134.966,113.188c0,0-23.915,11.852-23.915,44.852h32.263l0.128-59.69
		L134.966,113.188z"/>
	<path clip-path="url(#SVGID_15_)" fill="#666666" d="M143.443,98.21l-0.128,59.83h-32.263c0-33,23.915-45.13,23.915-45.13
		L143.443,98.21 M147.375,83.582l-7.311,12.678l-7.948,13.784c-2.141,1.287-7.255,4.654-12.214,10.603
		c-5.867,7.04-12.973,19.24-12.973,37.39v4.003h4.123h32.263h3.892l0.008-3.943l0.129-59.854L147.375,83.582z"/>
	<path clip-path="url(#SVGID_15_)" fill="#CCCCCC" d="M195.306,113.967c0,0,23.915,12.074,23.915,45.074h-32.263L186.83,99.24
		L195.306,113.967z"/>
	<path clip-path="url(#SVGID_15_)" fill="#666666" d="M186.83,98.989l8.476,14.811c0,0,23.915,12.24,23.915,45.24h-32.263
		L186.83,98.989 M182.898,84.139l0.031,14.635l0.129,60.101l0.008,4.165h3.892h32.263h4.708v-4.446
		c0-18.149-7.398-30.35-13.266-37.39c-4.958-5.949-10.163-9.316-12.304-10.603l-8.049-13.784L182.898,84.139z"/>
	<path clip-path="url(#SVGID_15_)" fill="#E55C63" d="M149.929,30.04v0.378v74.622h31V31.172c0-2.868-0.075-6.024-1.562-8.243
		l-9.55-14.899c-1.292-1.292-3.202-1.91-4.758-1.866c-1.946-0.044-3.443,0.574-4.735,1.866l-9.296,14.948
		c-1.295,1.933-1.124,4.236-1.124,7.254"/>
	<path clip-path="url(#SVGID_15_)" fill="#E84547" d="M179.367,22.929l-9.55-14.961c-1.292-1.292-3.2-1.928-4.756-1.928h-0.132v99
		h16V31.173C180.929,28.281,180.854,25.148,179.367,22.929"/>
	<path clip-path="url(#SVGID_15_)" fill="#F2F2F2" d="M185.627,53.239l-13.709-21.338c-1.85-1.85-4.602-2.735-6.831-2.671
		c-2.786-0.064-4.938,0.821-6.789,2.671l-13.623,21.63c-1.856,2.768-2.147,5.509-2.163,10.509h0.417v-0.363v0.288V172.04h45V65.045
		C187.929,60.99,187.757,56.416,185.627,53.239"/>
	<path clip-path="url(#SVGID_15_)" fill="#E6E6E6" d="M185.627,53.239l-13.709-21.338c-1.85-1.85-4.609-2.735-6.838-2.671
		c-0.024-0.001-0.151,0.002-0.151,0.002V172.04h23V65.045C187.929,60.99,187.757,56.416,185.627,53.239"/>
	<rect x="162.955" y="128.644" clip-path="url(#SVGID_15_)" fill="#666666" width="4.179" height="42.904"/>
	<path clip-path="url(#SVGID_15_)" fill="#666666" d="M151.929,54.374c-1,1.023-2.368,2.694-2.368,4.587
		c0,1.894,1.368,3.565,2.368,4.588V54.374z"/>
	<path clip-path="url(#SVGID_15_)" fill="#666666" d="M176.929,53.817c1,1.023,2.368,2.694,2.368,4.587
		c0,1.894-1.368,3.565-2.368,4.587V53.817z"/>
	<rect x="180.647" y="80.68" clip-path="url(#SVGID_15_)" fill="#E84547" width="6.686" height="19.687"/>
	<rect x="180.647" y="100.367" clip-path="url(#SVGID_15_)" fill="#83D5DB" width="6.686" height="19.687"/>
	<rect x="118.612" y="162.215" clip-path="url(#SVGID_15_)" fill="#B3B3B3" width="24.145" height="9.287"/>
	<rect x="118.612" y="162.215" clip-path="url(#SVGID_15_)" fill="#999999" width="24.006" height="4.643"/>
	<rect x="129.839" y="144.123" clip-path="url(#SVGID_15_)" fill="#B3B3B3" width="12.779" height="8.063"/>
	<rect x="187.23" y="144.123" clip-path="url(#SVGID_15_)" fill="#B3B3B3" width="12.779" height="8.063"/>
	<rect x="142.757" y="171.456" clip-path="url(#SVGID_15_)" fill="#B3B3B3" width="44.462" height="4.643"/>
	<rect x="142.757" y="176.122" clip-path="url(#SVGID_15_)" fill="#999999" width="44.462" height="4.643"/>
	<rect x="142.757" y="180.789" clip-path="url(#SVGID_15_)" fill="#808080" width="44.462" height="4.643"/>
	<rect x="142.757" y="185.455" clip-path="url(#SVGID_15_)" fill="#666666" width="44.462" height="4.643"/>
	<polygon clip-path="url(#SVGID_15_)" fill="#666666" points="176.929,53.996 164.591,37.765 151.929,54.297 151.929,63.578 
		152.232,63.588 164.736,47.074 176.929,63.217 	"/>
	<rect x="124.831" y="171.507" clip-path="url(#SVGID_15_)" fill="#FFFFFF" width="9.651" height="100.966"/>
	<rect x="194.616" y="171.507" clip-path="url(#SVGID_15_)" fill="#FFFFFF" width="9.651" height="100.966"/>
	<path clip-path="url(#SVGID_15_)" fill="#FFFFFF" d="M163.435,259.296c0,23.883-19.361,43.245-43.245,43.245
		c-23.883,0-43.244-19.362-43.244-43.245c0-23.883,19.361-43.245,43.244-43.245C144.074,216.051,163.435,235.413,163.435,259.296"/>
	<path clip-path="url(#SVGID_15_)" fill="#FFFFFF" d="M163.806,259.296c0,23.883,19.361,43.245,43.245,43.245
		c23.883,0,43.244-19.362,43.244-43.245c0-23.883-19.361-43.245-43.244-43.245C183.167,216.051,163.806,235.413,163.806,259.296"/>
	<path clip-path="url(#SVGID_15_)" fill="#FFFFFF" d="M221.713,235.786c0,27.3,22.131,49.431,49.431,49.431
		s49.431-22.131,49.431-49.431c0-27.3-22.131-49.431-49.431-49.431S221.713,208.486,221.713,235.786"/>
	<path clip-path="url(#SVGID_15_)" fill="#FFFFFF" d="M3.449,235.786c0,27.3,22.131,49.431,49.431,49.431
		c27.3,0,49.431-22.131,49.431-49.431c0-27.3-22.131-49.431-49.431-49.431C25.58,186.356,3.449,208.486,3.449,235.786"/>
</g>
</svg>
