<?xml version="1.0" encoding="utf-8"?>
<!-- Generator: Adobe Illustrator 15.0.2, SVG Export Plug-In . SVG Version: 6.00 Build 0)  -->
<!DOCTYPE svg PUBLIC "-//W3C//DTD SVG 1.1//EN" "http://www.w3.org/Graphics/SVG/1.1/DTD/svg11.dtd">
<svg version="1.1" id="Capa_1" xmlns="http://www.w3.org/2000/svg" xmlns:xlink="http://www.w3.org/1999/xlink" x="0px" y="0px"
	 width="399.174px" height="324.137px" viewBox="0 0 399.174 324.137" enable-background="new 0 0 399.174 324.137"
	 xml:space="preserve">
<path fill="#FFFFFF" d="M175.72,47.04c-63.906,0-115.9,51.993-115.9,115.9c0,12.519,2.098,24.744,5.999,36.488
	c-18.421,6.341-31.71,23.801-31.71,44.344c0,25.879,21.054,46.928,46.938,46.928c17.892,0,33.461-10.075,41.375-24.845
	c16.406,8.506,34.655,12.985,53.298,12.985c63.908,0,115.901-51.994,115.901-115.9C291.621,99.033,239.627,47.04,175.72,47.04
	 M251.764,95.987c11.428,12.966,19.679,28.8,23.311,46.346c-12.595-7.722-21.376-20.823-23.199-35.838
	C251.448,102.979,251.438,99.467,251.764,95.987 M123.784,75.935c0.274,2.16,0.534,4.311,1.001,6.635
	c1.087,5.976,3.146,11.556,5.143,16.959c4.089,11.071,7.621,20.635,2.463,31.432c-6.365,13.36-15.636,14.179-31.71,10.965
	L98.28,141.5c-5.48-0.947-13.12-2.285-20.577-4.349C84.525,111.239,101.326,89.392,123.784,75.935 M75.697,146.601
	c7.717,2.098,15.39,3.431,20.947,4.388l2.262,0.396c4.801,0.957,9.781,1.765,14.674,1.765c10.584,0,20.716-3.796,27.5-18.042
	c6.918-14.462,2.319-26.894-2.122-38.912c-1.934-5.244-3.762-10.195-4.715-15.429c-0.688-3.45-1.063-6.645-1.289-9.709
	c10.152-4.744,21.159-7.939,32.793-9.079c-2.521,12.095-0.327,25.644,6.654,41.665c11.821,27.861,20.899,54.698,2.304,76.867
	c-15.771,19.332-39.61,13.674-64.859,7.688c-10.272-2.444-20.89-4.961-30.613-5.452c-1.015-0.048-2.011-0.038-3.007-0.048
	c-1.28-6.475-1.963-13.071-1.963-19.759C74.253,157.358,74.826,151.927,75.697,146.601 M81.047,275.55
	c-17.532,0-31.788-14.256-31.788-31.778c0-17.522,14.261-31.778,31.788-31.778c17.517,0,31.772,14.256,31.772,31.778
	C112.819,261.294,98.564,275.55,81.047,275.55 M175.72,264.406c-17.046,0-33.697-4.296-48.525-12.384
	c0.476-2.689,0.77-5.432,0.77-8.251c0-5.432-0.977-10.628-2.685-15.487c4.903,0.611,9.815,1.636,14.814,3.156
	c9.858,3.108,18.09,7.707,26.798,12.563c4.248,2.367,8.645,4.82,13.341,7.169c7.539,3.882,15.492,6.88,23.729,9.141
	C194.989,262.93,185.53,264.406,175.72,264.406 M220.324,253.938c-12.619-1.915-24.633-5.639-35.737-11.34
	c-4.551-2.285-8.852-4.681-13.004-6.991c-9.151-5.114-17.797-9.93-28.636-13.35c-7.674-2.339-15.126-3.676-22.641-4.099
	c-8.391-12.808-22.844-21.314-39.259-21.314c-0.294,0-0.573,0.039-0.866,0.048c-0.534-1.506-1.073-3.007-1.535-4.527h0.115
	c8.824,0.442,18.552,2.752,28.858,5.196c11.994,2.848,24.734,5.865,36.891,5.865c13.962,0,27.164-3.974,37.599-16.772
	c22.031-26.273,11.653-57.262-0.885-86.807c-6.74-15.468-8.448-27.626-5.388-38.369c15.732,0.019,30.575,3.738,43.874,10.175
	c-4.484,10.214-6.861,21.333-6.861,32.572c0,37.632,26.312,70.315,62.309,78.859C268.854,214.284,248.137,240.245,220.324,253.938
	 M222.475,104.22c0-9.642,1.982-19.158,5.72-27.958c5.427,3.301,10.519,7.078,15.213,11.307c-1.506,6.577-1.905,13.327-1.092,20.081
	c2.491,20.525,15.766,38.182,34.419,46.495c0.25,2.906,0.443,5.826,0.443,8.795c0,3.56-0.193,7.087-0.555,10.561
	C245.303,165.691,222.475,137.119,222.475,104.22"/>
<path fill="#FFFFFF" d="M209.577,199.586c0,10.233,8.328,18.566,18.565,18.566c10.243,0,18.565-8.333,18.565-18.566
	c0-10.243-8.322-18.566-18.565-18.566C217.905,181.02,209.577,189.343,209.577,199.586 M237.091,199.586
	c0,4.931-4.013,8.944-8.944,8.944c-4.931,0-8.943-4.013-8.943-8.944c0-4.931,4.013-8.944,8.943-8.944
	C233.079,190.642,237.091,194.655,237.091,199.586"/>
<path fill="#FFFFFF" d="M34.109,187.625c3.566,0,6.457,2.891,6.457,6.457c0,3.565-2.891,6.456-6.457,6.456s-6.457-2.891-6.457-6.456
	C27.652,190.517,30.543,187.625,34.109,187.625"/>
<path fill="#FFFFFF" d="M72.988,67.889c2.117,0,3.833,1.716,3.833,3.833s-1.716,3.833-3.833,3.833c-2.117,0-3.833-1.716-3.833-3.833
	S70.871,67.889,72.988,67.889"/>
<path fill="#FFFFFF" d="M153.65,6.995c2.117,0,3.833,1.716,3.833,3.833c0,2.116-1.716,3.833-3.833,3.833
	c-2.117,0-3.833-1.717-3.833-3.833C149.817,8.711,151.533,6.995,153.65,6.995"/>
<path fill="#FFFFFF" d="M97.316,23.995c2.117,0,3.833,1.716,3.833,3.833c0,2.116-1.716,3.833-3.833,3.833
	c-2.117,0-3.833-1.717-3.833-3.833C93.483,25.711,95.199,23.995,97.316,23.995"/>
<path fill="#FFFFFF" d="M254.65,37.995c2.117,0,3.833,1.716,3.833,3.833c0,2.116-1.716,3.833-3.833,3.833
	c-2.116,0-3.833-1.717-3.833-3.833C250.817,39.711,252.534,37.995,254.65,37.995"/>
<path fill="#FFFFFF" d="M296.711,304.209c3.565,0,6.457,2.891,6.457,6.457c0,3.565-2.892,6.456-6.457,6.456
	c-3.566,0-6.457-2.891-6.457-6.456C290.254,307.1,293.145,304.209,296.711,304.209"/>
<path fill="#FFFFFF" d="M59.146,76.662c3.566,0,6.457,2.891,6.457,6.457c0,3.565-2.891,6.456-6.457,6.456s-6.457-2.891-6.457-6.456
	C52.688,79.553,55.58,76.662,59.146,76.662"/>
<path fill="#FFFFFF" d="M141.026,25.372c3.566,0,6.457,2.891,6.457,6.457c0,3.565-2.891,6.456-6.457,6.456s-6.457-2.891-6.457-6.456
	C134.569,28.263,137.46,25.372,141.026,25.372"/>
<path fill="#FFFFFF" d="M392.407,218.398c3.737,0,6.768,3.03,6.768,6.767c0,3.738-3.03,6.768-6.768,6.768
	c-3.736,0-6.767-3.03-6.767-6.768C385.64,221.429,388.67,218.398,392.407,218.398"/>
<path fill="#FFFFFF" d="M42.056,125.616c3.566,0,6.457,2.891,6.457,6.457c0,3.565-2.891,6.456-6.457,6.456s-6.457-2.891-6.457-6.456
	C35.599,128.507,38.49,125.616,42.056,125.616"/>
<path fill="#FFFFFF" d="M283.055,24.616c3.566,0,6.457,2.891,6.457,6.457c0,3.565-2.891,6.456-6.457,6.456
	c-3.565,0-6.457-2.891-6.457-6.456C276.598,27.507,279.49,24.616,283.055,24.616"/>
<path fill="#FFFFFF" d="M17.1,155.824c1.722,0,3.117,1.396,3.117,3.117c0,1.722-1.395,3.118-3.117,3.118
	c-1.722,0-3.117-1.396-3.117-3.118C13.983,157.221,15.378,155.824,17.1,155.824"/>
<path fill="#FFFFFF" d="M303.172,238.772c1.482,0,2.685,1.202,2.685,2.686c0,1.482-1.202,2.684-2.685,2.684
	c-1.483,0-2.686-1.202-2.686-2.684C300.487,239.975,301.689,238.772,303.172,238.772"/>
<path fill="#FFFFFF" d="M19.811,97.569c1.483,0,2.685,1.202,2.685,2.685c0,1.482-1.202,2.684-2.685,2.684
	c-1.483,0-2.685-1.202-2.685-2.684C17.126,98.771,18.328,97.569,19.811,97.569"/>
<path fill="#FFFFFF" d="M380.935,288.805c1.554,0,2.813,1.26,2.813,2.814c0,1.554-1.26,2.814-2.813,2.814s-2.813-1.26-2.813-2.814
	C378.122,290.065,379.381,288.805,380.935,288.805"/>
<path fill="#FFFFFF" d="M212.26,304.204c1.483,0,2.686,1.202,2.686,2.686c0,1.482-1.202,2.684-2.686,2.684
	c-1.482,0-2.685-1.202-2.685-2.684C209.576,305.406,210.778,304.204,212.26,304.204"/>
<path fill="#FFFFFF" d="M134.383,301.524c1.483,0,2.685,1.202,2.685,2.685c0,1.482-1.202,2.684-2.685,2.684
	s-2.685-1.202-2.685-2.684C131.698,302.727,132.9,301.524,134.383,301.524"/>
<path fill="#FFFFFF" d="M18.574,298.84c1.483,0,2.685,1.202,2.685,2.685c0,1.482-1.202,2.684-2.685,2.684s-2.685-1.202-2.685-2.684
	C15.889,300.042,17.091,298.84,18.574,298.84"/>
</svg>
