<?xml version="1.0" encoding="utf-8"?>
<!-- Generator: Adobe Illustrator 15.0.2, SVG Export Plug-In . SVG Version: 6.00 Build 0)  -->
<!DOCTYPE svg PUBLIC "-//W3C//DTD SVG 1.1//EN" "http://www.w3.org/Graphics/SVG/1.1/DTD/svg11.dtd">
<svg version="1.1" id="Capa_1" xmlns="http://www.w3.org/2000/svg" xmlns:xlink="http://www.w3.org/1999/xlink" x="0px" y="0px"
	 width="218.979px" height="182.482px" viewBox="0 0 218.979 182.482" enable-background="new 0 0 218.979 182.482"
	 xml:space="preserve">
<path fill="#79CACC" d="M206.194,152.588c0,5.385-43.093,9.75-96.25,9.75s-96.25-4.365-96.25-9.75s43.093-9.75,96.25-9.75
	S206.194,147.204,206.194,152.588"/>
<rect x="141.565" y="60.162" transform="matrix(0.9452 0.3265 -0.3265 0.9452 31.3269 -44.5013)" fill="#ECECEC" width="13.352" height="21.832"/>
<path fill="#ECECEC" d="M160.634,61.817c-2.307,6.678-7.793,10.843-13.485,8.877c-5.693-1.966-8.438-8.975-6.132-15.652
	s8.791-10.498,14.484-8.532C161.193,48.477,162.939,55.139,160.634,61.817"/>
<rect x="132.57" y="43.443" transform="matrix(-0.9452 -0.3264 0.3264 -0.9452 259.806 136.1462)" fill="#ECECEC" width="17.512" height="5.662"/>
<path fill="#9EABAC" d="M135.696,44.108c-0.492,1.423-2.044,2.179-3.467,1.688c-1.424-0.491-2.179-2.044-1.688-3.467
	c0.492-1.423,2.044-2.178,3.467-1.688C135.432,41.133,136.188,42.685,135.696,44.108"/>
<rect x="150.1" y="58.128" transform="matrix(-0.3264 0.9452 -0.9452 -0.3264 268.3272 -69.2977)" fill="#ECECEC" width="17.511" height="5.662"/>
<path fill="#9EABAC" d="M157.165,66.753c1.423,0.492,2.178,2.044,1.687,3.467c-0.492,1.423-2.044,2.179-3.467,1.687
	c-1.423-0.492-2.178-2.044-1.688-3.467C154.189,67.017,155.741,66.262,157.165,66.753"/>
<path fill="#ECECEC" d="M162.532,50.151c1.505,0.52,2.304,2.162,1.784,3.667c-0.521,1.506-2.161,2.304-3.667,1.785
	c-1.505-0.52-2.305-2.162-1.784-3.668C159.385,50.43,161.027,49.631,162.532,50.151"/>
<rect x="129.534" y="38.282" transform="matrix(0.9454 0.326 -0.326 0.9454 24.2107 -39.6014)" fill="#9EABAC" width="1.468" height="28.313"/>
<rect x="116.523" y="23.117" transform="matrix(0.9452 0.3264 -0.3264 0.9452 16.6371 -39.9609)" fill="#E84547" width="21.732" height="12.952"/>
<path fill="#F2F2F2" d="M156.189,120.729c-8.296,24.022-34.495,36.771-58.517,28.474c-24.022-8.297-36.771-34.495-28.474-58.517
	c8.296-24.021,34.495-36.77,58.518-28.474C151.737,70.508,164.485,96.708,156.189,120.729"/>
<path fill="#CCCCCC" d="M152.012,81.798c-0.112,5.393-1.052,10.857-2.906,16.229c-9.568,27.704-39.783,42.405-67.487,32.838
	c-3.622-1.251-7.018-2.856-10.171-4.762c5.177,10.469,14.314,18.984,26.226,23.099c24.021,8.296,50.221-4.452,58.517-28.473
	C160.843,107.256,158.874,93.099,152.012,81.798"/>
<path fill="#CCCCCC" d="M102.367,132.523c-1.998,5.787-8.31,8.857-14.096,6.858c-5.787-1.998-8.856-8.308-6.858-14.095
	c1.998-5.786,8.309-8.857,14.095-6.858C101.295,120.426,104.365,126.738,102.367,132.523"/>
<path fill="#CCCCCC" d="M132.005,102.783c-2.301,6.663-9.568,10.199-16.23,7.898c-6.663-2.303-10.199-9.568-7.898-16.231
	s9.568-10.199,16.231-7.898C130.771,88.853,134.306,96.12,132.005,102.783"/>
<path fill="#CCCCCC" d="M91.253,99.369c-1.151,3.332-4.784,5.099-8.115,3.949c-3.332-1.151-5.1-4.784-3.949-8.116
	c1.15-3.331,4.784-5.099,8.115-3.948C90.636,92.404,92.403,96.037,91.253,99.369"/>
<path fill="#CCCCCC" d="M107.776,74.16c-0.848,2.455-3.524,3.758-5.979,2.91c-2.455-0.848-3.757-3.525-2.91-5.98
	c0.848-2.455,3.526-3.758,5.979-2.91C107.321,69.028,108.625,71.705,107.776,74.16"/>
<polygon fill="#F2F2F2" points="135.579,66.438 118.021,60.375 120.957,57.569 135,62.418 "/>
<polygon fill="#CCCCCC" points="115.581,151.691 136.071,144.086 135.498,148.831 119.111,154.912 "/>
<polygon fill="#CCCCCC" points="152.497,128.031 157.153,113.19 160.145,115.699 156.554,126.975 "/>
<polygon fill="#F2F2F2" points="77.132,77.125 68.441,93.542 66.12,90.209 73.07,77.08 "/>
<polygon fill="#F2F2F2" points="67.167,108.138 72.188,126.023 68.209,125.208 64.193,110.906 "/>
<rect x="156.776" y="49.184" transform="matrix(-0.9452 -0.3266 0.3266 -0.9452 293.8382 150.1883)" fill="#ECECEC" width="5.501" height="2.488"/>
<path fill="#F2F2F2" d="M167.875,49.363c-3.225,5.087-9.961,6.598-15.049,3.374c-5.088-3.224-6.598-9.961-3.374-15.049
	c3.224-5.087,9.962-6.597,15.049-3.374C169.588,37.538,171.099,44.276,167.875,49.363"/>
<path fill="#83D5DB" d="M163.98,47.16c-1.348,2.128-16.876-3.537-13.64-8.644c3.506-5.532,7.375-4.885,11.142-2.498
	C165.248,38.405,167.486,41.627,163.98,47.16"/>
<path fill="#F2F2F2" d="M78.448,45.331c3.158,0.58,5.646,3.067,6.226,6.226c0.58-3.159,3.067-5.646,6.227-6.226
	c-3.159-0.58-5.646-3.067-6.227-6.226C84.094,42.264,81.606,44.75,78.448,45.331"/>
<path fill="#F2F2F2" d="M92.915,30.863c3.159,0.58,5.646,3.067,6.227,6.226c0.579-3.159,3.066-5.646,6.226-6.226
	c-3.159-0.58-5.646-3.067-6.226-6.227C98.562,27.796,96.074,30.284,92.915,30.863"/>
<path fill="#F2F2F2" d="M171.822,91.48c3.158,0.58,5.646,3.067,6.226,6.227c0.58-3.159,3.067-5.646,6.227-6.227
	c-3.159-0.58-5.646-3.066-6.227-6.227C177.468,88.414,174.98,90.9,171.822,91.48"/>
</svg>
