<?xml version="1.0" encoding="utf-8"?>
<!-- Generator: Adobe Illustrator 17.0.0, SVG Export Plug-In . SVG Version: 6.00 Build 0)  -->
<!DOCTYPE svg PUBLIC "-//W3C//DTD SVG 1.1//EN" "http://www.w3.org/Graphics/SVG/1.1/DTD/svg11.dtd">
<svg version="1.1" id="Capa_1" xmlns="http://www.w3.org/2000/svg" xmlns:xlink="http://www.w3.org/1999/xlink" x="0px" y="0px"
	 width="200.465px" height="150.347px" viewBox="0 0 200.465 150.347" enable-background="new 0 0 200.465 150.347"
	 xml:space="preserve">
<g>
	<path fill-rule="evenodd" clip-rule="evenodd" fill="#FFFFFF" d="M17.898,35.797h164.664c9.887,0,17.903-8.016,17.903-17.899
		C200.465,8.012,192.449,0,182.562,0H17.898C8.012,0,0,8.012,0,17.898C0,27.785,8.012,35.797,17.898,35.797L17.898,35.797z
		 M182.562,57.273H17.898C8.012,57.273,0,65.289,0,75.172C0,85.058,8.012,93.07,17.898,93.07h164.664
		c9.887,0,17.903-8.012,17.903-17.898C200.465,65.289,192.449,57.273,182.562,57.273L182.562,57.273z M182.562,114.551H17.898
		C8.012,114.551,0,122.562,0,132.449c0,9.883,8.012,17.898,17.898,17.898h164.664c9.887,0,17.903-8.015,17.903-17.898
		C200.465,122.562,192.449,114.551,182.562,114.551L182.562,114.551z M182.562,114.551"/>
</g>
</svg>
