<?xml version="1.0" encoding="utf-8"?>
<!-- Generator: Adobe Illustrator 18.1.1, SVG Export Plug-In . SVG Version: 6.00 Build 0)  -->
<svg version="1.1" id="Capa_1" xmlns="http://www.w3.org/2000/svg" xmlns:xlink="http://www.w3.org/1999/xlink" x="0px" y="0px"
	 viewBox="0 0 1109.9 631.9" enable-background="new 0 0 1109.9 631.9" xml:space="preserve">
<rect x="0" y="0.2" fill="#FFFFFF" width="1109.8" height="631.6"/>
<rect y="0" fill="#F9627F" width="1109.6" height="4.5"/>
<text transform="matrix(1 0 0 1 410.6834 65.229)" fill="#14152A" font-family="'Lato-Regular'" font-size="13.4756" letter-spacing="1">FORMULARIO DE REGISTRO ESPACIAL</text>
<text transform="matrix(1 0 0 1 493.6833 167.229)" fill="#14152A" font-family="'Lato-Regular'" font-size="13.4756" letter-spacing="1">O SI LO DESEAS</text>
<path fill="#CFF9F9" stroke="#999999" stroke-miterlimit="10" d="M677.7,266.6H425c-9.6,0-17.4-7.8-17.4-17.4l0,0
	c0-9.6,7.8-17.4,17.4-17.4h252.8c9.6,0,17.4,7.8,17.4,17.4l0,0C695.2,258.8,687.4,266.6,677.7,266.6z"/>
<path fill="#14152A" d="M677.7,132.6H425c-9.6,0-17.4-7.8-17.4-17.4v0c0-9.6,7.8-17.4,17.4-17.4h252.8c9.6,0,17.4,7.8,17.4,17.4v0
	C695.2,124.8,687.4,132.6,677.7,132.6z"/>
<text transform="matrix(1 0 0 1 463.6833 254.2217)" fill="#999999" font-family="'Lato-Italic'" font-size="13.4756" letter-spacing="1">NOMBRE Y APELLIDOS...</text>
<text transform="matrix(1 0 0 1 444.1834 120.2217)" fill="#FFFFFF" font-family="'Lato-Regular'" font-size="13.4756" letter-spacing="1">REGISTRÁTE CON FACEBOOK</text>
<path fill="#F9627F" d="M677.7,497.4H425c-9.6,0-17.4-7.8-17.4-17.4l0,0c0-9.6,7.8-17.4,17.4-17.4h252.8c9.6,0,17.4,7.8,17.4,17.4
	l0,0C695.2,489.6,687.4,497.4,677.7,497.4z"/>
<path fill="#CFF9F9" stroke="#999999" stroke-miterlimit="10" d="M677.7,399.4H425c-9.6,0-17.4-7.8-17.4-17.4l0,0
	c0-9.6,7.8-17.4,17.4-17.4h252.8c9.6,0,17.4,7.8,17.4,17.4l0,0C695.2,391.6,687.4,399.4,677.7,399.4z"/>
<text transform="matrix(1 0 0 1 504.2808 387.0107)" fill="#999999" font-family="'Lato-Italic'" font-size="13.4756" letter-spacing="1">PASSWORD...</text>
<path fill="#CFF9F9" stroke="#999999" stroke-miterlimit="10" d="M677.7,447.4H425c-9.6,0-17.4-7.8-17.4-17.4l0,0
	c0-9.6,7.8-17.4,17.4-17.4h252.8c9.6,0,17.4,7.8,17.4,17.4l0,0C695.2,439.6,687.4,447.4,677.7,447.4z"/>
<text transform="matrix(1 0 0 1 453.2808 435.0107)" fill="#999999" font-family="'Lato-Italic'" font-size="13.4756" letter-spacing="1">CONFIRMAR PASSWORD...</text>
<text transform="matrix(1 0 0 1 433.7808 528.5107)" fill="#999999" font-family="'Lato-Italic'" font-size="12">Mantenme registrado</text>
<text transform="matrix(1 0 0 1 408.2808 350.5107)" fill="#999999" font-family="'Lato-Italic'" font-size="12">Usa almenos 6 carácteres</text>
<text transform="matrix(1 0 0 1 936.7808 62.5107)" fill="#F9627F" font-family="'Lato-Italic'" font-size="12">Salir</text>
<text transform="matrix(1 0 0 1 409.7808 553.8442)"><tspan x="0" y="0" fill="#999999" font-family="'Lato-Italic'" font-size="12">Clicando en acceder estás aceptando nuestra</tspan><tspan x="0" y="14.4" fill="#F9627F" font-family="'Lato-Italic'" font-size="12">política de privacidad</tspan></text>
<text transform="matrix(1 0 0 1 513.2808 485.0107)" fill="#FFFFFF" font-family="'Lato-Regular'" font-size="13.4756" letter-spacing="1">ACCEDER</text>
<circle fill="#E6E6E6" stroke="#808080" stroke-miterlimit="10" cx="417.2" cy="523.3" r="8.2"/>
<line fill="none" stroke="#F9627F" stroke-miterlimit="10" x1="409.5" y1="572.1" x2="531.5" y2="572.1"/>
<line fill="none" stroke="#F9627F" stroke-miterlimit="10" x1="935.8" y1="64.1" x2="963.1" y2="64.1"/>
<path fill="#F9D2DC" d="M677.7,314.4H425c-9.6,0-17.4-7.8-17.4-17.4l0,0c0-9.6,7.8-17.4,17.4-17.4h252.8c9.6,0,17.4,7.8,17.4,17.4
	l0,0C695.2,306.6,687.4,314.4,677.7,314.4z"/>
<text transform="matrix(1 0 0 1 522.2806 301.0107)" fill="#F9627F" font-family="'Lato-Italic'" font-size="13.4756" letter-spacing="1">EMAIL...</text>
<path fill="none" stroke="#F9627F" stroke-miterlimit="10" d="M677.7,314.1H425c-9.6,0-17.4-7.8-17.4-17.4l0,0
	c0-9.6,7.8-17.4,17.4-17.4h252.8c9.6,0,17.4,7.8,17.4,17.4l0,0C695.2,306.3,687.4,314.1,677.7,314.1z"/>
<text transform="matrix(1 0 0 1 433.1141 197.1772)"><tspan x="0" y="0" fill="#F9627F" font-family="'Lato-Italic'" font-size="12">Lo sentimos, ya existe una cuenta con el email</tspan><tspan x="0" y="14.4" fill="#F9627F" font-family="'Lato-Italic'" font-size="12">introducido, por favor, prueba de nuevo.</tspan></text>
<circle fill="#F9627F" cx="419.2" cy="201.3" r="8.2"/>
<line fill="none" stroke="#FFFFFF" stroke-linecap="round" stroke-miterlimit="10" x1="414.8" y1="197.5" x2="422.8" y2="205.4"/>
<line fill="none" stroke="#FFFFFF" stroke-linecap="round" stroke-miterlimit="10" x1="422.8" y1="197.5" x2="414.8" y2="205.4"/>
</svg>
