<?xml version="1.0" encoding="utf-8"?>
<!-- Generator: Adobe Illustrator 18.1.1, SVG Export Plug-In . SVG Version: 6.00 Build 0)  -->
<svg version="1.1" id="Capa_1" xmlns="http://www.w3.org/2000/svg" xmlns:xlink="http://www.w3.org/1999/xlink" x="0px" y="0px"
	 viewBox="0 0 1109.9 631.9" enable-background="new 0 0 1109.9 631.9" xml:space="preserve">
<rect x="0" y="0.2" fill="#FFFFFF" width="1109.8" height="631.6"/>
<rect y="0" fill="#F9627F" width="1109.6" height="4.5"/>
<text transform="matrix(1 0 0 1 332.1184 253.0308)"><tspan x="0" y="0" fill="#14152A" font-family="'Lato-Regular'" font-size="21.7684" letter-spacing="3">PARECE QUE TODO HA IDO BIEN!</tspan><tspan x="-71.4" y="26.1" fill="#14152A" font-family="'Lato-Regular'" font-size="21.7684" letter-spacing="3">SOLO TE QUEDA CONFIRMAR TU DIRECCIÓN</tspan><tspan x="38.6" y="52.2" fill="#14152A" font-family="'Lato-Regular'" font-size="21.7684" letter-spacing="3">DE CORREO ELECTRÓNICO.</tspan><tspan x="-189.9" y="104.5" fill="#14152A" font-family="'Lato-Regular'" font-size="21.7684" letter-spacing="3">TE HEMOS ENVIADO UN MAIL CON EL LINK DE CONFIRMACIÓN</tspan><tspan x="9.6" y="156.7" fill="#14152A" font-family="'Lato-Regular'" font-size="21.7684" letter-spacing="3">QUE LA FUERZA TE ACOMPAÑE!</tspan></text>
<path fill="#F9627F" d="M677.7,552.4H425c-9.6,0-17.4-7.8-17.4-17.4l0,0c0-9.6,7.8-17.4,17.4-17.4h252.8c9.6,0,17.4,7.8,17.4,17.4
	l0,0C695.2,544.6,687.4,552.4,677.7,552.4z"/>
<text transform="matrix(1 0 0 1 936.7806 62.5107)" fill="#F9627F" font-family="'Lato-Italic'" font-size="12">Salir</text>
<text transform="matrix(1 0 0 1 471.2809 540.0107)" fill="#FFFFFF" font-family="'Lato-Regular'" font-size="13.4756" letter-spacing="1">VOLVER A LA HOME</text>
<line fill="none" stroke="#F9627F" stroke-miterlimit="10" x1="935.8" y1="64.1" x2="963.1" y2="64.1"/>
<line fill="none" stroke="#FFFFFF" stroke-linecap="round" stroke-miterlimit="10" x1="414.8" y1="197.5" x2="422.8" y2="205.4"/>
<line fill="none" stroke="#FFFFFF" stroke-linecap="round" stroke-miterlimit="10" x1="422.8" y1="197.5" x2="414.8" y2="205.4"/>
<g id="Your_Icon">
	<g>
		<g>
			<path fill="#14152A" d="M576.9,140.4c-1.6-1.5-3.5-2.7-5.6-3.8c-1.1-0.5-1.4-1.1-1.3-2c0.7-5.6,0.7-11.1-0.8-16.6
				c-1.9-6.8-6-12.8-12.9-18.4c-0.6-0.5-1.8-0.6-2.8,0.2c-3.1,2.5-5.7,5.2-7.9,8.2c-3.8,5.3-5.6,10.9-6.1,16.8
				c-0.3,3.8,0,7.5,0.4,11.3c0,0.2-0.1,0.5-0.3,0.6c-1.8,1.2-3.7,2.3-5.4,3.5c-2.1,1.5-3.2,3.3-3.2,5.5c0,1.6,0.2,3.2,0.7,4.8
				c1.2,3.9,3.3,7.5,5.7,11.1c0.2,0.3,0.5,0.5,0.8,0.7c1,0.5,2.2,0.2,2.8-0.7c1.6-2.3,3.3-4.6,4.9-7c0.2-0.3,0.4-0.4,0.9-0.4
				c2.1,0,4.2,0,6.4,0v6.4c0,1.1,0.9,1.9,1.9,1.9c1.1,0,1.9-0.9,1.9-1.9V154c2.2,0,4.4,0,6.6,0c0.5,0,0.7,0.1,0.9,0.4
				c1.5,2.1,3,4.3,4.5,6.4c0.2,0.3,0.5,0.6,0.9,0.8c1.1,0.5,2.2,0.2,2.8-0.8c1.3-2.1,2.6-4.3,3.7-6.5c1.3-2.6,2.4-5.3,2.6-8
				C579.3,144.2,578.9,142.1,576.9,140.4z M543,152.7c-1.2,1.7-2.4,3.4-3.7,5.3c-2.1-3.6-4-7.1-4.5-10.9c-0.2-1.4-0.2-2.8,0.9-4
				c0.9-1,3.3-2.8,4.8-3.5c0.2,0.9,0.4,1.8,0.6,2.7c0.7,3.3,1.3,6.5,2,9.8C543.1,152.3,543.1,152.5,543,152.7z M564.8,144
				c-0.4,2.4-0.9,4.8-1.3,7.2c0,0.1,0,0.1-0.1,0.2c-2.1,0-4.2,0-6.3,0V138c0-1.1-0.9-1.9-1.9-1.9c-1.1,0-1.9,0.9-1.9,1.9v13.4
				c-2.2,0-4.3,0-6.5,0c-0.4-1.9-0.8-3.8-1.2-5.7c-0.7-4.2-1.6-8.4-2.1-12.6c-0.7-5.9-0.3-11.8,2-17.6c1.8-4.3,4.5-8.3,8.4-11.8
				c0.3-0.3,0.7-0.6,1-1c0,0,0.1,0,0.2-0.1c0.6,0.6,1.3,1.1,1.9,1.7c3.2,3.2,5.6,6.6,7.3,10.3c1.7,3.9,2.4,7.9,2.5,11.9
				C566.9,132.4,565.9,138.2,564.8,144z M575.4,146.2c-0.2,2.6-1.2,5.1-2.4,7.5c-0.6,1.2-1.3,2.4-2,3.8c-1.3-1.9-2.5-3.6-3.7-5.3
				c-0.1-0.1-0.1-0.3-0.1-0.4c0.8-4.1,1.6-8.2,2.5-12.2c0-0.1,0.1-0.2,0.1-0.4c1.9,1.1,3.7,2.2,4.9,3.7
				C575.5,143.8,575.5,145,575.4,146.2z"/>
			<path fill="#14152A" d="M555.2,116.7c-1.5,0-3,0.6-4.2,1.6c-1.1,1-1.8,2.6-1.9,4.2c-0.1,1.7,0.5,3.3,1.6,4.4c1.2,1.3,2.8,2,4.5,2
				c1.5,0,3-0.6,4.2-1.7c2.4-2.2,2.6-6.2,0.3-8.6C558.5,117.4,556.9,116.7,555.2,116.7z M553.4,120.8c0.5-0.5,1.2-0.7,1.8-0.7
				c0.8,0,1.5,0.3,2,0.9c1,1.1,0.9,2.8-0.2,3.9c-0.5,0.5-1.2,0.8-1.9,0.8c-0.7,0-1.4-0.3-2-0.9c-0.5-0.5-0.8-1.3-0.7-2
				C552.6,121.9,552.9,121.2,553.4,120.8z"/>
		</g>
	</g>
</g>
</svg>
