<?xml version="1.0" encoding="utf-8"?>
<!-- Generator: Adobe Illustrator 18.1.1, SVG Export Plug-In . SVG Version: 6.00 Build 0)  -->
<svg version="1.1" id="Capa_1" xmlns="http://www.w3.org/2000/svg" xmlns:xlink="http://www.w3.org/1999/xlink" x="0px" y="0px"
	 viewBox="0 0 1109.9 631.9" enable-background="new 0 0 1109.9 631.9" xml:space="preserve">
<rect x="0" y="0.2" fill="#FFFFFF" width="1109.8" height="631.6"/>
<rect y="0" fill="#F9627F" width="1109.6" height="4.5"/>
<text transform="matrix(1 0 0 1 410.6834 65.229)" fill="#14152A" font-family="'Lato-Regular'" font-size="13.4756" letter-spacing="1">FORMULARIO DE REGISTRO ESPACIAL</text>
<text transform="matrix(1 0 0 1 493.6835 202.229)" fill="#14152A" font-family="'Lato-Regular'" font-size="13.4756" letter-spacing="1">O SI LO DESEAS</text>
<path fill="#CFF9F9" stroke="#999999" stroke-miterlimit="10" d="M677.7,266.6H425c-9.6,0-17.4-7.8-17.4-17.4l0,0
	c0-9.6,7.8-17.4,17.4-17.4h252.8c9.6,0,17.4,7.8,17.4,17.4l0,0C695.2,258.8,687.4,266.6,677.7,266.6z"/>
<path fill="#14152A" d="M677.7,167.6H425c-9.6,0-17.4-7.8-17.4-17.4v0c0-9.6,7.8-17.4,17.4-17.4h252.8c9.6,0,17.4,7.8,17.4,17.4v0
	C695.2,159.8,687.4,167.6,677.7,167.6z"/>
<text transform="matrix(1 0 0 1 463.6835 254.2214)" fill="#999999" font-family="'Lato-Italic'" font-size="13.4756" letter-spacing="1">NOMBRE Y APELLIDOS...</text>
<text transform="matrix(1 0 0 1 444.1834 155.2217)" fill="#FFFFFF" font-family="'Lato-Regular'" font-size="13.4756" letter-spacing="1">REGISTRÁTE CON FACEBOOK</text>
<path fill="#CFF9F9" stroke="#999999" stroke-miterlimit="10" d="M677.7,318.4H425c-9.6,0-17.4-7.8-17.4-17.4l0,0
	c0-9.6,7.8-17.4,17.4-17.4h252.8c9.6,0,17.4,7.8,17.4,17.4l0,0C695.2,310.6,687.4,318.4,677.7,318.4z"/>
<path fill="#F9627F" d="M677.7,467.4H425c-9.6,0-17.4-7.8-17.4-17.4l0,0c0-9.6,7.8-17.4,17.4-17.4h252.8c9.6,0,17.4,7.8,17.4,17.4
	l0,0C695.2,459.6,687.4,467.4,677.7,467.4z"/>
<text transform="matrix(1 0 0 1 520.2809 306.0105)" fill="#999999" font-family="'Lato-Italic'" font-size="13.4756" letter-spacing="1">EMAIL...</text>
<path fill="#CFF9F9" stroke="#999999" stroke-miterlimit="10" d="M677.7,369.4H425c-9.6,0-17.4-7.8-17.4-17.4l0,0
	c0-9.6,7.8-17.4,17.4-17.4h252.8c9.6,0,17.4,7.8,17.4,17.4l0,0C695.2,361.6,687.4,369.4,677.7,369.4z"/>
<text transform="matrix(1 0 0 1 504.2809 357.0105)" fill="#999999" font-family="'Lato-Italic'" font-size="13.4756" letter-spacing="1">PASSSWORD...</text>
<path fill="#CFF9F9" stroke="#999999" stroke-miterlimit="10" d="M677.7,417.4H425c-9.6,0-17.4-7.8-17.4-17.4l0,0
	c0-9.6,7.8-17.4,17.4-17.4h252.8c9.6,0,17.4,7.8,17.4,17.4l0,0C695.2,409.6,687.4,417.4,677.7,417.4z"/>
<text transform="matrix(1 0 0 1 453.2809 405.0105)" fill="#999999" font-family="'Lato-Italic'" font-size="13.4756" letter-spacing="1">CONFIRMAR PASSWORD...</text>
<text transform="matrix(1 0 0 1 433.7808 498.5107)" fill="#999999" font-family="'Lato-Italic'" font-size="12">Mantenme registrado</text>
<text transform="matrix(1 0 0 1 936.7809 62.5105)" fill="#F9627F" font-family="'Lato-Italic'" font-size="12">Salir</text>
<text transform="matrix(1 0 0 1 409.7808 523.8438)"><tspan x="0" y="0" fill="#999999" font-family="'Lato-Italic'" font-size="12">Clicando en acceder estás aceptando nuestra</tspan><tspan x="0" y="14.4" fill="#F9627F" font-family="'Lato-Italic'" font-size="12">política de privacidad</tspan></text>
<text transform="matrix(1 0 0 1 513.2809 455.0105)" fill="#FFFFFF" font-family="'Lato-Regular'" font-size="13.4756" letter-spacing="1">ACCEDER</text>
<circle fill="#E6E6E6" stroke="#808080" stroke-miterlimit="10" cx="417.2" cy="493.3" r="8.2"/>
<line fill="none" stroke="#F9627F" stroke-miterlimit="10" x1="409.5" y1="542.1" x2="531.5" y2="542.1"/>
<line fill="none" stroke="#F9627F" stroke-miterlimit="10" x1="935.8" y1="64.1" x2="963.1" y2="64.1"/>
</svg>
