<?xml version="1.0" encoding="utf-8"?>
<!-- Generator: Adobe Illustrator 17.0.0, SVG Export Plug-In . SVG Version: 6.00 Build 0)  -->
<!DOCTYPE svg PUBLIC "-//W3C//DTD SVG 1.1//EN" "http://www.w3.org/Graphics/SVG/1.1/DTD/svg11.dtd">
<svg version="1.1" id="Capa_1" xmlns="http://www.w3.org/2000/svg" xmlns:xlink="http://www.w3.org/1999/xlink" x="0px" y="0px"
	 width="78.332px" height="78.34px" viewBox="0 0 78.332 78.34" enable-background="new 0 0 78.332 78.34" xml:space="preserve">
<g>
	<defs>
		<rect id="SVGID_1_" x="347.796" y="-3698.877" width="1024" height="5200.09"/>
	</defs>
	<clipPath id="SVGID_2_">
		<use xlink:href="#SVGID_1_"  overflow="visible"/>
	</clipPath>
	<g clip-path="url(#SVGID_2_)">
		<defs>
			<rect id="SVGID_22_" x="347.796" y="-3698.876" width="1024" height="5200.089"/>
		</defs>
		<clipPath id="SVGID_4_">
			<use xlink:href="#SVGID_22_"  overflow="visible"/>
		</clipPath>
	</g>
	<g clip-path="url(#SVGID_2_)">
		<defs>
			<rect id="SVGID_48_" x="347.796" y="-3698.876" width="1024" height="5200.089"/>
		</defs>
		<clipPath id="SVGID_6_">
			<use xlink:href="#SVGID_48_"  overflow="visible"/>
		</clipPath>
		<g clip-path="url(#SVGID_6_)" enable-background="new    ">
			<g>
				<defs>
					<rect id="SVGID_50_" x="34.01" y="-3035.667" width="1320.926" height="4308.24"/>
				</defs>
				<clipPath id="SVGID_8_">
					<use xlink:href="#SVGID_50_"  overflow="visible"/>
				</clipPath>
			</g>
		</g>
	</g>
	<g clip-path="url(#SVGID_2_)">
		<defs>
			<rect id="SVGID_114_" x="347.796" y="-3698.876" width="1024" height="5200.089"/>
		</defs>
		<clipPath id="SVGID_10_">
			<use xlink:href="#SVGID_114_"  overflow="visible"/>
		</clipPath>
	</g>
	<g clip-path="url(#SVGID_2_)">
		<defs>
			<rect id="SVGID_142_" x="347.796" y="-3698.876" width="1024" height="5200.089"/>
		</defs>
		<clipPath id="SVGID_12_">
			<use xlink:href="#SVGID_142_"  overflow="visible"/>
		</clipPath>
		<g clip-path="url(#SVGID_12_)" enable-background="new    ">
			<g>
				<defs>
					<rect id="SVGID_144_" x="34.01" y="-2606.667" width="1320.926" height="4308.24"/>
				</defs>
				<clipPath id="SVGID_13_">
					<use xlink:href="#SVGID_144_"  overflow="visible"/>
				</clipPath>
			</g>
		</g>
	</g>
</g>
<g opacity="0.75">
	<g>
		<defs>
			<rect id="SVGID_274_" x="0" y="0" width="78.332" height="78.34"/>
		</defs>
		<clipPath id="SVGID_15_">
			<use xlink:href="#SVGID_274_"  overflow="visible"/>
		</clipPath>
		<circle clip-path="url(#SVGID_15_)" fill="none" stroke="#FFFFFF" stroke-miterlimit="10" cx="39.166" cy="39.171" r="38.666"/>
	</g>
</g>
<g opacity="0.75">
	<g>
		<defs>
			<rect id="SVGID_276_" x="21.3" y="23.84" width="37.732" height="30.66"/>
		</defs>
		<clipPath id="SVGID_17_">
			<use xlink:href="#SVGID_276_"  overflow="visible"/>
		</clipPath>
		<path clip-path="url(#SVGID_17_)" fill="#FFFFFF" d="M59.031,27.47c-1.388,0.616-2.88,1.032-4.446,1.219
			c1.598-0.958,2.826-2.475,3.404-4.283c-1.496,0.887-3.153,1.532-4.916,1.879c-1.412-1.505-3.424-2.445-5.65-2.445
			c-4.997,0-8.67,4.663-7.541,9.505c-6.433-0.323-12.137-3.404-15.955-8.088c-2.028,3.479-1.052,8.031,2.395,10.335
			c-1.268-0.04-2.462-0.388-3.506-0.968c-0.084,3.586,2.486,6.94,6.209,7.688c-1.09,0.296-2.283,0.364-3.496,0.132
			c0.985,3.076,3.844,5.314,7.231,5.376c-3.254,2.551-7.353,3.69-11.46,3.206c3.426,2.196,7.495,3.478,11.866,3.478
			c14.372,0,22.492-12.139,22.002-23.027C56.681,30.386,57.993,29.022,59.031,27.47"/>
	</g>
</g>
</svg>
